HIERARCHY
ROOT hip
{
  OFFSET 0 0 0
  CHANNELS 6 Xposition Yposition Zposition Zrotation Yrotation Xrotation
  JOINT abdomen
  {
    OFFSET 0 20.6881 -0.73152
    CHANNELS 3 Zrotation Xrotation Yrotation
    JOINT chest
    {
      OFFSET 0 11.7043 -0.48768
      CHANNELS 3 Zrotation Xrotation Yrotation
      JOINT neck
      {
        OFFSET 0 22.1894 -2.19456
        CHANNELS 3 Zrotation Xrotation Yrotation
        JOINT head
        {
          OFFSET -0.24384 7.07133 1.2192
          CHANNELS 3 Zrotation Xrotation Yrotation
          JOINT leftEye
          {
            OFFSET 4.14528 8.04674 8.04672
            CHANNELS 3 Zrotation Xrotation Yrotation
            End Site
            {
              OFFSET 1 0 0
            }
          }
          JOINT rightEye
          {
            OFFSET -3.6576 8.04674 8.04672
            CHANNELS 3 Zrotation Xrotation Yrotation
            End Site
            {
              OFFSET 1 0 0
            }
          }
        }
      }
      JOINT rCollar
      {
        OFFSET -2.68224 19.2634 -4.8768
        CHANNELS 3 Zrotation Xrotation Yrotation
        JOINT rShldr
        {
          OFFSET -8.77824 -1.95073 1.46304
          CHANNELS 3 Zrotation Xrotation Yrotation
          JOINT rForeArm
          {
            OFFSET -28.1742 -1.7115 0.48768
            CHANNELS 3 Zrotation Xrotation Yrotation
            JOINT rHand
            {
              OFFSET -22.5879 0.773209 7.07136
              CHANNELS 3 Zrotation Xrotation Yrotation
              JOINT rThumb1
              {
                OFFSET -1.2192 -0.487915 3.41376
                CHANNELS 3 Zrotation Xrotation Yrotation
                JOINT rThumb2
                {
                  OFFSET -3.37035 -0.52449 3.41376
                  CHANNELS 3 Zrotation Xrotation Yrotation
                  End Site
                  {
                    OFFSET -1.78271 -1.18214 1.43049
                  }
                }
              }
              JOINT rIndex1
              {
                OFFSET -7.75947 0.938293 5.60832
                CHANNELS 3 Zrotation Xrotation Yrotation
                JOINT rIndex2
                {
                  OFFSET -2.54057 -0.884171 1.56538
                  CHANNELS 3 Zrotation Xrotation Yrotation
                  End Site
                  {
                    OFFSET -1.62519 -0.234802 1.16502
                  }
                }
              }
              JOINT rMid1
              {
                OFFSET -8.24714 1.18213 3.41376
                CHANNELS 3 Zrotation Xrotation Yrotation
                JOINT rMid2
                {
                  OFFSET -3.10165 -0.590103 1.0647
                  CHANNELS 3 Zrotation Xrotation Yrotation
                  End Site
                  {
                    OFFSET -2.48547 -0.328903 0.83742
                  }
                }
              }
              JOINT rRing1
              {
                OFFSET -8.82822 0.546677 1.51678
                CHANNELS 3 Zrotation Xrotation Yrotation
                JOINT rRing2
                {
                  OFFSET -2.60934 -0.819778 -0.0198488
                  CHANNELS 3 Zrotation Xrotation Yrotation
                  End Site
                  {
                    OFFSET -2.33842 -0.294052 0.168128
                  }
                }
              }
              JOINT rPinky1
              {
                OFFSET -8.27202 -0.0477905 -0.4584
                CHANNELS 3 Zrotation Xrotation Yrotation
                JOINT rPinky2
                {
                  OFFSET -1.82734 -0.647385 -0.700984
                  CHANNELS 3 Zrotation Xrotation Yrotation
                  End Site
                  {
                    OFFSET -1.69225 -0.51767 -0.607171
                  }
                }
              }
            }
          }
        }
      }
      JOINT lCollar
      {
        OFFSET 2.68224 19.2634 -4.8768
        CHANNELS 3 Zrotation Xrotation Yrotation
        JOINT lShldr
        {
          OFFSET 8.77824 -1.95073 1.46304
          CHANNELS 3 Zrotation Xrotation Yrotation
          JOINT lForeArm
          {
            OFFSET 28.1742 -1.7115 0.48768
            CHANNELS 3 Zrotation Xrotation Yrotation
            JOINT lHand
            {
              OFFSET 22.5879 0.773209 7.07136
              CHANNELS 3 Zrotation Xrotation Yrotation
              JOINT lThumb1
              {
                OFFSET 1.2192 -0.487915 3.41376
                CHANNELS 3 Zrotation Xrotation Yrotation
                JOINT lThumb2
                {
                  OFFSET 3.37035 -0.52449 3.41376
                  CHANNELS 3 Zrotation Xrotation Yrotation
                  End Site
                  {
                    OFFSET 1.78271 -1.18214 1.43049
                  }
                }
              }
              JOINT lIndex1
              {
                OFFSET 7.75947 0.938293 5.60832
                CHANNELS 3 Zrotation Xrotation Yrotation
                JOINT lIndex2
                {
                  OFFSET 2.54057 -0.884171 1.56538
                  CHANNELS 3 Zrotation Xrotation Yrotation
                  End Site
                  {
                    OFFSET 1.62519 -0.234802 1.16502
                  }
                }
              }
              JOINT lMid1
              {
                OFFSET 8.24714 1.18213 3.41376
                CHANNELS 3 Zrotation Xrotation Yrotation
                JOINT lMid2
                {
                  OFFSET 3.10165 -0.590103 1.0647
                  CHANNELS 3 Zrotation Xrotation Yrotation
                  End Site
                  {
                    OFFSET 2.48547 -0.328903 0.83742
                  }
                }
              }
              JOINT lRing1
              {
                OFFSET 8.82822 0.546677 1.51678
                CHANNELS 3 Zrotation Xrotation Yrotation
                JOINT lRing2
                {
                  OFFSET 2.60934 -0.819778 -0.0198488
                  CHANNELS 3 Zrotation Xrotation Yrotation
                  End Site
                  {
                    OFFSET 2.33842 -0.294052 0.168128
                  }
                }
              }
              JOINT lPinky1
              {
                OFFSET 8.27202 -0.0477905 -0.4584
                CHANNELS 3 Zrotation Xrotation Yrotation
                JOINT lPinky2
                {
                  OFFSET 1.82734 -0.647385 -0.700984
                  CHANNELS 3 Zrotation Xrotation Yrotation
                  End Site
                  {
                    OFFSET 1.69225 -0.51767 -0.607171
                  }
                }
              }
            }
          }
        }
      }
    }
  }
  JOINT rButtock
  {
    OFFSET -8.77824 4.35084 1.2192
    CHANNELS 3 Zrotation Xrotation Yrotation
    JOINT rThigh
    {
      OFFSET 0 -1.70687 -2.19456
      CHANNELS 3 Zrotation Xrotation Yrotation
      JOINT rShin
      {
        OFFSET 0 -36.8199 0.73152
        CHANNELS 3 Zrotation Xrotation Yrotation
        JOINT rFoot
        {
          OFFSET 0.73152 -45.1104 -5.12064
          CHANNELS 3 Zrotation Xrotation Yrotation
          End Site
          {
            OFFSET -1.1221 -3.69964 12.103
          }
        }
      }
    }
  }
  JOINT lButtock
  {
    OFFSET 8.77824 4.35084 1.2192
    CHANNELS 3 Zrotation Xrotation Yrotation
    JOINT lThigh
    {
      OFFSET 0 -1.70687 -2.19456
      CHANNELS 3 Zrotation Xrotation Yrotation
      JOINT lShin
      {
        OFFSET 0 -36.8199 0.73152
        CHANNELS 3 Zrotation Xrotation Yrotation
        JOINT lFoot
        {
          OFFSET -0.73152 -45.1104 -5.12064
          CHANNELS 3 Zrotation Xrotation Yrotation
          End Site
          {
            OFFSET 1.1221 -3.69964 12.103
          }
        }
      }
    }
  }
}
MOTION
Frames:	7
Frame Time:	0.03333333333333333
168.3865 82.093575 -11.986674 130.87378 88.11856 -230.76434 -2.1630113 0.93918854 -2.1763475 1.2345643 1.7229501 -0.2581446 4.00246 8.663678 0.33813596 -5.761977 -2.1681678 2.9826543 -0.07678413 0.06586967 -0.06168065 -0.08293269 -0.13164693 -0.033742946 0.046511184 -0.112487875 -0.10299226 95.08648 43.102448 -16.819641 -24.644075 -23.09195 54.595703 -1.4355123 19.085222 3.2804635 -0.1661117 0.09733942 0.16047548 -0.049009968 0.05670524 0.006145142 -0.07382122 -0.06151444 0.18825081 7.903942 5.714931 0.5205146 0.14949723 0.09043186 -0.14813809 3.0338516 1.1209776 0.027095465 -0.11011844 0.10137955 -0.015474313 10.463282 0.82992834 -0.014757424 -0.13064252 -0.08632998 0.14155684 2.3425817 -0.77960557 -0.21601129 -0.05745072 0.053074248 -0.055811275 -68.83709 45.683826 -27.957293 25.437607 -23.824993 -57.173904 3.8643966 -42.764023 8.626802 0.10188774 0.037567053 -0.1732507 0.14553253 0.054131806 -0.02408362 0.14972842 -0.062338892 -0.07514115 -8.139291 5.6048613 -0.5428095 0.0025245019 0.09916506 0.024005499 -3.1005073 1.0208794 -0.1055555 0.058314443 -0.15650946 0.15012302 -10.624817 0.84009796 -0.03447116 -0.16179763 -0.04593689 -0.09413561 -2.3353226 -0.82002926 0.17321226 0.10329716 0.0454306 -0.12940158 -6.1464734 -26.277334 -1.4775928 0.48862073 26.560688 0.54240054 -3.5289779 -8.083931 -12.240901 -0.13455229 -0.07756309 -0.04268009 -1.100312 -17.219606 5.6493473 -0.098190956 30.367064 -0.1440758 1.5401826 -8.625828 3.3495057
168.74236 82.08148 -11.458001 127.53211 89.322426 -235.78555 -2.9647563 1.7859082 -1.4094547 1.2845812 1.5966132 -0.0655212 4.0997276 8.775463 0.51863164 -7.029847 -2.9053648 3.565902 -0.08143186 0.06668185 -0.061810248 -0.08316619 -0.13311806 -0.029020512 0.0479553 -0.111619055 -0.10888874 94.99893 42.145947 -15.008319 -24.120775 -22.25542 52.981827 -1.2098738 18.498444 3.2883902 -0.16772759 0.090238854 0.16163754 -0.04551638 0.048400532 0.0042634252 -0.06525269 -0.067354575 0.18376297 7.912202 5.7208138 0.53421885 0.14788269 0.089146875 -0.1492989 3.0486586 1.1316067 0.031629644 -0.10068851 0.09646017 -0.016654562 10.47207 0.84410375 -0.004960798 -0.13070431 -0.09625705 0.15249015 2.3551145 -0.786857 -0.22488476 -0.057861466 0.06459555 -0.055464655 -71.8163 43.571953 -27.031479 24.795567 -23.194918 -56.16661 3.8468084 -43.500523 8.447437 0.09805128 0.04290415 -0.16248232 0.14208446 0.05683016 -0.02209913 0.15997049 -0.05884213 -0.06693324 -8.148632 5.613778 -0.55104375 0.0118003255 0.10526156 0.032187425 -3.1061966 1.0324758 -0.10522194 0.05374046 -0.15884154 0.14518836 -10.62177 0.8496308 -0.03141636 -0.16246907 -0.040816113 -0.09671171 -2.3462203 -0.8284545 0.17444071 0.103526615 0.03495656 -0.11943124 -7.955835 -26.803501 -1.764004 0.5083072 27.190344 0.5188808 -3.6084793 -7.707245 -11.716786 -0.1307814 -0.07552764 -0.039126042 -2.556907 -16.273605 5.8508706 -0.16910592 30.807505 -0.06719497 1.8090715 -8.783848 4.3472953
169.31058 82.046 -10.885424 127.780975 90.52932 -236.95662 -4.181588 2.6806922 -0.60612124 1.5015111 1.3986756 0.1288203 4.1172585 8.813073 0.7167631 -8.140164 -3.4013317 4.0419316 -0.08724905 0.06727782 -0.061163906 -0.08138266 -0.13485458 -0.021754324 0.048388045 -0.11110801 -0.11294501 95.48243 40.98348 -13.5746765 -23.662178 -21.622368 51.739574 -0.9297573 17.460436 3.214166 -0.16745074 0.082967795 0.16067651 -0.040635247 0.03853814 0.0012960284 -0.05671949 -0.07142931 0.17556173 7.912446 5.718414 0.54812247 0.14642084 0.08718683 -0.14684783 3.0631618 1.1422398 0.038780212 -0.087460354 0.08692549 -0.018872265 10.472863 0.86093605 0.001981075 -0.13063595 -0.10445212 0.15823103 2.3660953 -0.7951655 -0.23836307 -0.05791149 0.07470151 -0.052542202 -74.06909 41.991806 -26.196596 24.421457 -22.798355 -55.457985 3.9805982 -44.47221 8.435332 0.09489371 0.047403593 -0.1502292 0.13301206 0.06208012 -0.020113092 0.16623084 -0.05282737 -0.054571234 -8.147013 5.6187944 -0.56002444 0.018925065 0.11325424 0.04064213 -3.1098492 1.0459659 -0.1056913 0.04559471 -0.1589489 0.1362088 -10.609271 0.8584879 -0.02749834 -0.15857998 -0.03261047 -0.095383056 -2.3570073 -0.8365141 0.17845665 0.100309275 0.022125436 -0.10821065 -10.035289 -27.29382 -2.3547115 0.51944304 28.412956 0.47557175 -3.5589745 -7.017755 -11.023002 -0.122186996 -0.07418423 -0.037342776 -4.234451 -15.037381 5.981064 -0.26725274 30.51976 0.047107704 2.027557 -9.124897 5.4121103
170.07445 82.04731 -10.264092 130.677 91.60763 -234.71362 -5.8843884 3.4501555 0.10514302 1.8884674 1.2237235 0.26881266 4.068074 8.772169 0.96466243 -9.086451 -3.4313166 4.3671217 -0.094274536 0.069192864 -0.060951583 -0.07697175 -0.13687178 -0.014283699 0.048546128 -0.11204167 -0.11488394 96.46573 39.548927 -12.628607 -23.310219 -21.26992 51.014988 -0.62239116 16.084118 3.0407722 -0.1664179 0.077798784 0.15837415 -0.035623275 0.029705212 -0.0009063874 -0.052541763 -0.075162865 0.1658864 7.903868 5.70656 0.5595819 0.14499871 0.08434504 -0.14297041 3.0727093 1.1519856 0.046726603 -0.07351887 0.07521122 -0.019065872 10.465411 0.8762918 0.005774231 -0.12997545 -0.1075504 0.15979248 2.3726587 -0.8028455 -0.25353757 -0.057517394 0.0816421 -0.048055205 -75.60418 40.972652 -25.38864 24.362415 -22.705719 -55.17798 4.138554 -45.52443 8.502261 0.093614325 0.050330006 -0.13880444 0.12089146 0.068299115 -0.01840645 0.16958703 -0.046253793 -0.0405138 -8.133192 5.61901 -0.56916595 0.02309196 0.12315356 0.0486326 -3.109787 1.0580913 -0.10670025 0.034140166 -0.15737465 0.12565707 -10.58822 0.865494 -0.023417355 -0.15236838 -0.022332689 -0.09221488 -2.3641598 -0.84184295 0.18517196 0.09561437 0.010123434 -0.0989867 -12.422636 -27.743614 -3.2211754 0.4751375 30.167974 0.4301895 -3.3768976 -5.9355955 -10.312889 -0.11101912 -0.075392105 -0.03784258 -6.160115 -13.563654 5.8090043 -0.3655874 29.609968 0.16435611 2.1762028 -9.89132 6.44946
170.9785 82.11827 -9.597318 134.2673 92.458664 -230.57639 -7.9773345 3.9881694 0.61965764 2.409546 1.1189499 0.3344473 3.9218824 8.701377 1.259461 -9.824615 -3.008275 4.5496235 -0.101984754 0.07391551 -0.061991647 -0.07087068 -0.1399353 -0.008881006 0.049902625 -0.115373895 -0.11544465 97.72044 37.903378 -12.226894 -23.090042 -21.189825 50.8365 -0.33875173 14.523503 2.768973 -0.16714025 0.076679006 0.15632877 -0.032393344 0.02399312 -0.001147365 -0.054825284 -0.080050506 0.15750432 7.8878307 5.6869807 0.56772137 0.1435294 0.08199006 -0.14076555 3.0741453 1.1601093 0.05438068 -0.061660916 0.06449997 -0.014837865 10.451491 0.88786584 0.006985042 -0.12778184 -0.10421198 0.15909772 2.374005 -0.8094397 -0.2679378 -0.057128128 0.08384233 -0.04367479 -76.454926 40.37632 -24.654049 24.601543 -22.916431 -55.38369 4.2410316 -46.62391 8.595597 0.09578798 0.050055306 -0.13008997 0.110051736 0.07345185 -0.017693764 0.17223458 -0.041186452 -0.027814183 -8.109124 5.6145735 -0.5776629 0.023939278 0.13411206 0.05453025 -3.106155 1.066657 -0.107163794 0.021002617 -0.1547065 0.116472885 -10.562117 0.8710879 -0.02009911 -0.14655541 -0.012538599 -0.09032001 -2.3655026 -0.8438567 0.19312042 0.09210323 0.0016466092 -0.09403831 -15.140146 -28.224417 -4.3006687 0.356664 32.257652 0.4039432 -3.152682 -4.6984015 -9.757286 -0.100994945 -0.07896696 -0.0397545 -8.304432 -11.960376 5.266786 -0.4545439 28.11783 0.25763366 2.300679 -11.16487 7.491346
171.95155 82.229904 -8.900445 136.95596 93.035706 -225.55821 -10.21995 4.3518157 0.8431528 2.9961677 1.0477552 0.32463786 3.6153264 8.614863 1.5677359 -10.297231 -2.3029082 4.7173667 -0.10909412 0.08167741 -0.064340256 -0.064994425 -0.14495905 -0.0066566328 0.05310257 -0.12034691 -0.11535143 99.04386 36.21173 -12.356305 -23.017824 -21.331152 51.143406 -0.106038876 12.863807 2.4113724 -0.17094183 0.079059064 0.15554418 -0.03226405 0.021260163 0.0007731987 -0.062018115 -0.085971214 0.15135147 7.866476 5.662879 0.5731032 0.14173272 0.08152145 -0.14166777 3.066414 1.1654146 0.06149998 -0.053285185 0.056532614 -0.00610863 10.433158 0.8955785 0.007042725 -0.12306154 -0.096393816 0.15757683 2.371083 -0.8151888 -0.2806738 -0.05672936 0.08180095 -0.040602483 -76.63161 39.975414 -24.145395 25.084797 -23.367025 -56.005665 4.3417645 -47.955486 8.770708 0.10104827 0.0458716 -0.1243834 0.1031033 0.07636151 -0.018410934 0.17534935 -0.03835714 -0.018369474 -8.077363 5.606075 -0.58439255 0.022090005 0.14522313 0.05729488 -3.0993118 1.071078 -0.105475724 0.007972058 -0.15135394 0.1107592 -10.534323 0.87616444 -0.01826083 -0.14245981 -0.0056080385 -0.0914368 -2.3607404 -0.84304965 0.20064509 0.09075107 -0.0023985435 -0.09275538 -18.06074 -28.776997 -5.425225 0.17890556 34.389477 0.4184261 -3.014776 -3.765998 -9.566351 -0.09435946 -0.08347403 -0.041912653 -10.584277 -10.47495 4.5524287 -0.5302274 26.221403 0.31528556 2.4447567 -12.797815 8.551268
172.92534 82.37806 -8.175867 138.30833 93.299774 -220.38475 -12.347463 4.6843123 0.6989608 3.591126 0.95615727 0.24027233 3.163157 8.481182 1.8912652 -10.493408 -1.4729692 5.0234604 -0.114006735 0.0911227 -0.06762326 -0.061722655 -0.15256687 -0.007328686 0.057578277 -0.12586167 -0.11555249 100.49738 34.618893 -12.984118 -23.107689 -21.610918 51.787518 0.08118983 11.085012 1.9816179 -0.17726415 0.082236804 0.15589298 -0.03571799 0.02022555 0.004536846 -0.07193501 -0.09131786 0.14694865 7.8423314 5.6373763 0.5762447 0.13997734 0.08271609 -0.14553013 3.0497088 1.1670626 0.06749529 -0.048238955 0.051318645 0.005241983 10.413039 0.8993826 0.006596148 -0.115778744 -0.08686123 0.15613246 2.3641648 -0.81899536 -0.29111406 -0.056493558 0.07797888 -0.03877885 -76.299934 39.581207 -23.98573 25.691744 -23.980867 -56.953205 4.568212 -49.721287 9.132744 0.1079026 0.0385141 -0.12115511 0.10066727 0.076317966 -0.02063971 0.1788953 -0.037506368 -0.012538892 -8.041187 5.5937495 -0.58749944 0.01843073 0.15631057 0.057648823 -3.0888596 1.0705048 -0.10031146 -0.003923036 -0.1475856 0.109261304 -10.508422 0.88037485 -0.01826163 -0.1405389 -0.0017238756 -0.09453664 -2.350555 -0.8395967 0.20543481 0.091088735 -0.0030810821 -0.09275338 -20.957941 -29.341177 -6.379358 -0.024053017 36.213467 0.47458616 -3.0242047 -3.480034 -9.829972 -0.09105722 -0.087714404 -0.044008613 -12.824061 -9.285316 3.884602 -0.58758324 24.247623 0.33069363 2.636947 -14.546625 9.566041
